Bob Dylan The Other Side Of The Mirror Mkv 1080p Ac3 640Kbps


1963

North Country Blues
With God On Our Side (with Joan Baez)
Talkin' World War III Blues
Who Killed Davey Moore?
Only A Pawn In Their Game
Blowin' In The Wind


1964

Mr. Tambourine Man
It Ain't Me, Babe
With God On Our Side
Chimes Of Freedom


1965

If You Gotta Go, Go Now
Love Minus Zero/No Limit
Maggie's Farm (electric)
Like A Rolling Stone (electric)
Mr. Tambourine Man
It's All Over Now, Baby Blue   


General 
Unique ID : 189541474299719925715894628748881497440 (0x8E985C2FE35647C8AF0B350C025B0D60) 
Bob Dylan The Other Side Of The Mirror Mkv 1080p Ac3 640Kbps.mkv 
Format : Matroska 
Format version : Version 2 
File size : 6.75 GiB 
Duration : 1h 23mn 
Overall bit rate mode : Variable 
Overall bit rate : 11.6 Mbps 
Movie name : Bob Dylan The Other Side Of The Mirror 
Encoded date : UTC 2012-10-31 13:51:37 
Writing application : mkvmerge v5.7.0 ('The Whirlwind') built on Jul 8 2012 20:08:51 
Writing library : libebml v1.2.3 + libmatroska v1.3.0 

Video 
ID : 1 
Format : AVC 
Format/Info : Advanced Video Codec 
Format profile : High@L4.0 
Format settings, CABAC : Yes 
Format settings, ReFrames : 3 frames 
Codec ID : V_MPEG4/ISO/AVC 
Duration : 1h 23mn 
Bit rate mode : Variable 
Bit rate : 10.8 Mbps 
Maximum bit rate : 25.0 Mbps 
Width : 1 920 pixels 
Height : 1 080 pixels 
Display aspect ratio : 16:9 
Frame rate mode : Constant 
Frame rate : 23.976 fps 
Color space : YUV 
Chroma subsampling : 4:2:0 
Bit depth : 8 bits 
Scan type : Progressive 
Bits/(Pixel*Frame) : 0.216 
Stream size : 6.25 GiB (93%) 
Writing library : x264 core 125 r2208 d9d2288 
Encoding settings : cabac=1 / ref=3 / deblock=1:0:0 / analyse=0x3:0x113 / me=hex / subme=7 / psy=1 / psy_rd=1.00:0.00 / mixed_ref=1 / me_range=16 / chroma_me=1 / trellis=1 / 8x8dct=1 / cqm=0 / deadzone=21,11 / fast_pskip=1 / chroma_qp_offset=-2 / threads=12 / lookahead_threads=2 / sliced_threads=0 / nr=0 / decimate=1 / interlaced=0 / bluray_compat=0 / constrained_intra=0 / bframes=3 / b_pyramid=0 / b_adapt=1 / b_bias=0 / direct=1 / weightb=1 / open_gop=0 / weightp=2 / keyint=240 / keyint_min=24 / scenecut=40 / intra_refresh=0 / rc_lookahead=40 / rc=crf / mbtree=1 / crf=24.0 / qcomp=0.60 / qpmin=0 / qpmax=69 / qpstep=4 / vbv_maxrate=25000 / vbv_bufsize=25000 / crf_max=0.0 / nal_hrd=vbr / ip_ratio=1.40 / aq=1:1.00 
Default : Yes 
Forced : No 

Audio 
ID : 2 
Format : AC-3 
Format/Info : Audio Coding 3 
Mode extension : CM (complete main) 
Format settings, Endianness : Big 
Codec ID : A_AC3 
Duration : 1h 23mn 
Bit rate mode : Constant 
Bit rate : 640 Kbps 
Channel(s) : 6 channels 
Channel positions : Front: L C R, Side: L R, LFE 
Sampling rate : 48.0 KHz 
Bit depth : 16 bits 
Compression mode : Lossy 
Stream size : 381 MiB (6%) 
Language : English 
Default : Yes 
Forced : No 

Menu 
00:00:00.000 : en:Chapter 00 
00:02:50.712 : en:Chapter 01 
00:07:07.718 : en:Chapter 02 
00:13:15.211 : en:Chapter 03 
00:17:43.020 : en:Chapter 04 
00:21:09.726 : en:Chapter 05 
00:25:05.629 : en:Chapter 06 
00:29:10.415 : en:Chapter 07 
00:35:05.770 : en:Chapter 08 
00:36:39.989 : en:Chapter 09 
00:38:57.126 : en:Chapter 10 
00:39:58.813 : en:Chapter 11 
00:41:23.022 : en:Chapter 12 
00:51:20.827 : en:Chapter 13 
00:53:32.417 : en:Chapter 14 
00:56:53.368 : en:Chapter 15 
00:58:12.572 : en:Chapter 16 
00:59:21.766 : en:Chapter 17 
01:04:20.565 : en:Chapter 18 
01:10:53.916 : en:Chapter 19 
01:16:16.029 : en:Chapter 20 
01:21:36.892 : en:Chapter 21 
